<?xml version="1.0" encoding="UTF-8"?>
<svg version="1.1" xmlns="http://www.w3.org/2000/svg" width="32" height="32" viewBox="0 0 346 346">
<path d="M0 0 C0.78915298 0.00141495 1.57830597 0.0028299 2.39137268 0.00428772 C4.8872574 0.0098407 7.3830491 0.02238417 9.87890625 0.03515625 C11.5813789 0.04017734 13.28385298 0.04473918 14.98632812 0.04882812 C19.13805613 0.05979467 23.28971547 0.07702634 27.44140625 0.09765625 C27.66418363 17.01973614 25.79623482 33.01732784 20.44140625 49.09765625 C19.8690625 50.83789062 19.8690625 50.83789062 19.28515625 52.61328125 C14.79141272 65.18361789 8.06839493 75.96638173 -0.55859375 86.09765625 C-1.22246094 86.94585937 -1.88632812 87.7940625 -2.5703125 88.66796875 C-17.67828951 107.12997602 -43.41995376 117.59417856 -66.55859375 121.09765625 C-72.54725602 121.65373725 -78.54891548 121.90205505 -84.55859375 122.09765625 C-79.6879758 98.15045132 -63.0158996 77.3643378 -46.55859375 60.09765625 C-45.86894531 59.35515625 -45.17929688 58.61265625 -44.46875 57.84765625 C-39.36712477 52.50607727 -33.62437282 48.29018002 -27.55859375 44.09765625 C-38.41829894 49.20949145 -48.31667157 55.43637696 -57.55859375 63.09765625 C-58.74388672 64.06251953 -58.74388672 64.06251953 -59.953125 65.046875 C-75.60269476 78.37981553 -91.2534052 99.89152571 -93.11932373 120.87719727 C-93.41136108 126.14783462 -93.39144088 131.41453757 -93.36328125 136.69140625 C-93.37456028 138.61911665 -93.38845336 140.54681334 -93.40481567 142.4744873 C-93.44052353 147.49189152 -93.44126949 152.50868235 -93.43414307 157.52618408 C-93.43322337 162.66860603 -93.46618446 167.81080631 -93.49609375 172.953125 C-93.54964504 183.00136647 -93.56617561 193.04928762 -93.55859375 203.09765625 C-92.47184357 203.22272552 -91.38509338 203.3477948 -90.26541138 203.47665405 C-88.81900129 203.64873924 -87.37262228 203.82108588 -85.92626953 203.99365234 C-85.21243607 204.07509995 -84.4986026 204.15654755 -83.76313782 204.24046326 C-77.67339183 204.97575226 -72.15573187 206.50056553 -66.43359375 208.72265625 C-65.499104 209.07674561 -64.56461426 209.43083496 -63.60180664 209.7956543 C-37.75741906 219.87239998 -17.65019642 239.010287 -5.93652344 264.22485352 C-2.42959525 272.23849205 0.44140625 281.31558713 0.44140625 290.09765625 C-68.85859375 290.09765625 -138.15859375 290.09765625 -209.55859375 290.09765625 C-206.89920195 271.48191368 -198.8073275 254.35909272 -186.55859375 240.09765625 C-185.76582031 239.10765625 -185.76582031 239.10765625 -184.95703125 238.09765625 C-177.40100618 228.93015664 -167.74025632 222.08041215 -157.55859375 216.09765625 C-156.90713379 215.70739258 -156.25567383 215.31712891 -155.58447266 214.91503906 C-149.97886792 211.65777834 -144.33508613 209.3649839 -138.18359375 207.34765625 C-137.31476563 207.04472656 -136.4459375 206.74179688 -135.55078125 206.4296875 C-134.679375 206.13964844 -133.80796875 205.84960938 -132.91015625 205.55078125 C-131.76281006 205.16647949 -131.76281006 205.16647949 -130.59228516 204.77441406 C-125.96487225 203.74212784 -121.27996338 203.45453757 -116.55859375 203.09765625 C-116.62007924 193.13478973 -116.69738014 183.17217925 -116.79430866 173.20959091 C-116.83884234 168.58245368 -116.87813488 163.95540105 -116.9050293 159.328125 C-116.93123324 154.85403195 -116.97175342 150.38026752 -117.02178001 145.9063797 C-117.03833408 144.20819468 -117.04991911 142.50995297 -117.05620766 140.81169891 C-117.10741744 128.24172767 -117.92069095 116.63781675 -124.30859375 105.47265625 C-124.8346521 104.52483276 -124.8346521 104.52483276 -125.37133789 103.55786133 C-135.01093299 86.47374028 -151.14781954 66.56791432 -170.55859375 60.09765625 C-170.08550781 60.49855469 -169.61242187 60.89945313 -169.125 61.3125 C-158.98778472 70.02694822 -150.62176029 79.49204981 -142.55859375 90.09765625 C-141.95789063 90.87625 -141.3571875 91.65484375 -140.73828125 92.45703125 C-124.55859375 113.63463269 -124.55859375 113.63463269 -124.55859375 120.09765625 C-145.05621303 120.00164867 -167.55555835 110.95807637 -182.55859375 97.09765625 C-183.91210938 95.86402344 -183.91210938 95.86402344 -185.29296875 94.60546875 C-204.41326251 76.38308933 -215.40032085 50.77411703 -216.69140625 24.3828125 C-216.68882812 23.64933594 -216.68625 22.91585937 -216.68359375 22.16015625 C-216.68617188 21.40863281 -216.68875 20.65710938 -216.69140625 19.8828125 C-216.55859375 18.09765625 -216.55859375 18.09765625 -215.55859375 17.09765625 C-189.43560892 15.29515704 -161.87306415 24.13808766 -141.96875 41.0859375 C-139.19041236 43.54298945 -136.527043 46.09592607 -133.91601562 48.72949219 C-132.72808371 49.92682501 -131.51263437 51.0967278 -130.29296875 52.26171875 C-120.02883024 62.72790723 -114.56638221 77.26172324 -110.55859375 91.09765625 C-109.20202466 87.57057662 -107.85678058 84.07144514 -106.75 80.45703125 C-102.62003661 67.02088369 -96.25665227 55.12934023 -87.55859375 44.09765625 C-87.02878906 43.3396875 -86.49898437 42.58171875 -85.953125 41.80078125 C-85.49292969 41.23875 -85.03273437 40.67671875 -84.55859375 40.09765625 C-83.89859375 40.09765625 -83.23859375 40.09765625 -82.55859375 40.09765625 C-82.32011719 39.535625 -82.08164063 38.97359375 -81.8359375 38.39453125 C-77.01092205 29.71835668 -67.57049836 23.58135985 -59.55859375 18.09765625 C-58.48544922 17.29714844 -58.48544922 17.29714844 -57.390625 16.48046875 C-41.80149923 5.19078292 -19.01109029 -0.1305978 0 0 Z " fill="#048C3E" transform="translate(273.55859375,33.90234375)"/>
<path d="M0 0 C0.78915298 0.00141495 1.57830597 0.0028299 2.39137268 0.00428772 C4.8872574 0.0098407 7.3830491 0.02238417 9.87890625 0.03515625 C11.5813789 0.04017734 13.28385298 0.04473918 14.98632812 0.04882812 C19.13805613 0.05979467 23.28971547 0.07702634 27.44140625 0.09765625 C27.44140625 3.39765625 27.44140625 6.69765625 27.44140625 10.09765625 C25.44140625 7.09765625 25.44140625 7.09765625 24.44140625 2.09765625 C11.24140625 2.09765625 -1.95859375 2.09765625 -15.55859375 2.09765625 C-15.55859375 1.76765625 -15.55859375 1.43765625 -15.55859375 1.09765625 C-10.31960147 0.22499413 -5.30536522 -0.03644552 0 0 Z " fill="#366F4D" transform="translate(273.55859375,33.90234375)"/>
</svg>
</svg>
